<svg xmlns="http://www.w3.org/2000/svg" xmlns:xlink="http://www.w3.org/1999/xlink" width="33" height="43" viewBox="0 0 33 43"><defs><path id="dbf4a" d="M619 6181.03a17.6 17.6 0 0 1-1.37 6.71c-1.62 4.07-5.18 10.32-12.96 17-.2.17-.44.26-.67.26-.24 0-.47-.09-.67-.25-7.8-6.7-11.34-12.94-12.96-17a16.58 16.58 0 0 1-1.37-6.72c0-8.84 6.73-16.03 15-16.03 8.26 0 14.98 7.2 15 16.03zm-15-10c-5.25 0-9.53 4.57-9.53 10.18 0 5.6 4.28 10.18 9.52 10.18 5.25 0 9.52-4.57 9.52-10.18 0-5.61-4.27-10.18-9.52-10.18z"/><linearGradient id="dbf4b" x1="608" x2="600" y1="6205" y2="6165" gradientUnits="userSpaceOnUse"><stop offset="0" stop-color="#fcd369" stop-opacity=".73"/><stop offset="1" stop-color="#fcd369" stop-opacity="0"/></linearGradient></defs><g><g transform="translate(-587 -6163)"><use fill="#e4aa46" xlink:href="#dbf4a"/><use fill="url(#dbf4b)" xlink:href="#dbf4a"/></g></g></svg>